<svg xmlns="http://www.w3.org/2000/svg" viewBox="0 0 373.85 72.14"><g id="Layer_2" data-name="Layer 2"><g id="Layer_1-2" data-name="Layer 1"><g id="Layer_2-2" data-name="Layer 2"><g id="Layer_1-2-2" data-name="Layer 1-2"><g id="Layer_2-2-2" data-name="Layer 2-2"><g id="Layer_1-2-2-2" data-name="Layer 1-2-2"><path d="M131.89,12.33V60H121.43V53.15a20.85,20.85,0,0,1-16.74,7.94c-13.45,0-23.44-10.74-23.44-25s10-25,23.44-25a20.77,20.77,0,0,1,16.72,7.94V12.33ZM121.43,36.14a14.72,14.72,0,1,0-14.72,14.72A14.72,14.72,0,0,0,121.43,36.14Z"/><path d="M175.32,11.58V22.34h-1.78c-9.34,0-14.84,5.69-14.84,14.47V60H148.23V12.33H158.7v7a17.83,17.83,0,0,1,14.84-7.75Z"/><path d="M203,21.86V44.37c0,4.47,2.53,6.63,6.92,6.63a14,14,0,0,0,6.54-1.69v9.81a18.34,18.34,0,0,1-8.69,2c-10.27,0-15.23-5.8-15.23-15.05V21.86h-8V12.33h8V0H203V12.33h13.46v9.53Z"/><path d="M229,41V12.33h10.46V39.59c0,6.82,4.67,11.4,11.59,11.4s11.49-4.57,11.49-11.4V12.33H273V41c0,12.18-8.79,20.08-21.95,20.08S229,53.15,229,41Z"/><path d="M315.61,11.58V22.34h-1.78C304.49,22.34,299,28,299,36.81V60H288.52V12.33H299v7a17.85,17.85,0,0,1,14.84-7.71Z"/><path d="M322.8,36.14c0-14.21,10.93-25,25.55-25s25.5,10.74,25.5,24.93-11.08,25-25.5,25S322.8,50.35,322.8,36.14Zm40.16,0a14.73,14.73,0,1,0-14.72,14.72A14.72,14.72,0,0,0,363,36.14Z"/><polygon points="70.29 63.68 70.29 72.14 0 72.14 0 1.47 8.42 1.47 8.42 63.68 70.29 63.68"/><polygon points="70.29 52.57 19.68 52.57 19.68 22.54 43.29 22.54 43.29 31.49 28.63 31.49 28.63 43.63 61.35 43.63 61.35 10.42 19.83 10.42 19.83 1.47 70.29 1.47 70.29 52.57"/></g></g></g></g></g></g></svg>