<svg xmlns="http://www.w3.org/2000/svg" viewBox="0 0 1010.29 198.41"><g id="Layer_2" data-name="Layer 2"><g id="Layer_1-2" data-name="Layer 1"><path d="M13.81,11.45C35.21,7.65,56.62,3.9,78,.06a8.15,8.15,0,0,1,8.13,4.43A10.68,10.68,0,0,1,87,9.76c-.1,2.07.13,4.13,0,6.19,6.25.05,12.51,0,18.76,0,1.78,0,3.62-.17,5.33.43a8.07,8.07,0,0,1,5.49,7.2q0,75.88,0,151.76a4.64,4.64,0,1,1-9.28,0q0-75.06,0-150.13c-6.76,0-13.53,0-20.3,0,.16,29.34,0,58.7.07,88.05-.07,25,0,50,0,75a11.2,11.2,0,0,1-.9,5.75,8,8,0,0,1-9.78,3.89Q40.77,185.19,5.25,172.39A8,8,0,0,1,0,164.62V26.3A14.69,14.69,0,0,1,7.59,13.35a18.05,18.05,0,0,1,6.22-1.9m-.22,9.45a5.58,5.58,0,0,0-4.37,5.41q0,68.82,0,137.64,34.26,12.38,68.54,24.66,0-89.54,0-179.08Q45.67,15.23,13.59,20.9Z"/><path d="M56.39,89.51a10.13,10.13,0,0,1,8.07,1.21,10,10,0,1,1-15.28,10.17,10.08,10.08,0,0,1,7.21-11.38m1.36,6.67A3.31,3.31,0,1,0,62.29,100,3.32,3.32,0,0,0,57.75,96.18Z"/><path d="M245.07,45.4h16.75q0,34,0,67.92c.07,7.7-.09,15.67-3.06,22.88-2.47,6-8,10.19-14.06,12-11,3.41-22.58,2.29-33.89,2.5-11.32-.22-22.92.91-33.95-2.28-5.89-1.64-11.44-5.37-14.16-11-3.24-6.59-3.63-14.13-3.67-21.33.14-9.67-.75-19.66,2.47-29a20.79,20.79,0,0,1,11.63-12.4c8.06-3.44,17-3.69,25.66-3.65h46.26c0-8.58,0-17.16,0-25.73M183.66,86.89c-3.93,1.12-6.44,4.86-7,8.76-1.26,7.37-.7,14.91-.75,22.36.21,4.73.27,10,3.43,13.9,3.22,3.68,8.48,4,13,4.32,11.7.31,23.41.26,35.12.06,4.86-.25,10.47-.45,14.09-4.2,3.24-3.58,3.21-8.75,3.5-13.28.11-11.11,0-22.22,0-33.33H201.65C195.66,85.58,189.48,85.16,183.66,86.89Z"/><path d="M639.83,74.26c3.07-6.73,14.19-6.76,17.26,0,8.55,18.53,16.46,37.37,24.93,55.94q13.63-29.57,27.28-59.13c5.75,0,11.5,0,17.26,0q-17.37,37.71-34.8,75.38a11.07,11.07,0,0,1-9.06,6.31,11,11,0,0,1-10-6.69Q660.5,118.48,648.2,90.92c-9,18.64-17.77,37.4-26.7,56.07a10.56,10.56,0,0,1-12.81,5.16c-2.88-.8-4.73-3.44-5.9-6q-16.5-37.54-33-75.08c5.87,0,11.74,0,17.62,0,8.61,19.68,17.35,39.3,26,59C622.53,111.64,630.78,92.74,639.83,74.26Z"/><path d="M309.59,71.21c9.16-.18,18.33,0,27.49-.08,10.67,0,22.36-.16,31.55,6.07,7.66,5.41,9.43,15.42,9.77,24.18.16,9.75.72,19.64-1.2,29.26-1.25,7-5.72,13.39-12.31,16.23-11.06,4.85-23.45,3.68-35.21,3.85-11.08-.23-22.35.84-33.22-1.83-6.94-1.55-13.6-5.9-16.35-12.68-4.18-10.15-2.82-21.36-3.07-32.05.23-8.47.91-18,7-24.49,6.56-6.79,16.6-8,25.55-8.46m-4.21,15.18c-4.27.65-8.52,3.14-10,7.4-2.24,6.57-1.37,13.65-1.56,20.47.13,5.69-.27,12.1,3.35,16.9,3.61,4.31,9.7,4.68,14.91,5,10.82.32,21.65.36,32.46-.06,4.93-.38,10.62-.93,14-5,3.18-4.28,3-9.94,3.17-15-.19-7.25.66-14.66-1.25-21.74a11.2,11.2,0,0,0-8.55-7.62c-7.28-1.69-14.81-1.18-22.21-1.29C321.59,85.61,313.42,85.05,305.38,86.39Z"/><path d="M426.64,71.25c9.46-.26,18.92,0,28.38-.12,10.83,0,22.83-.17,32,6.51,7.76,6,9,16.47,9.29,25.58-.07,10.1.83,20.48-2.05,30.33a21.3,21.3,0,0,1-13.27,14c-11.26,4.16-23.47,2.92-35.22,3.13-11.51-.21-23.39,1-34.51-2.73-6-2-11.36-6.41-13.61-12.43-3.81-10-2.57-20.94-2.79-31.41.23-8.3.87-17.52,6.6-24.06,6.33-6.94,16.31-8.29,25.19-8.84M423.3,86.36c-3.73.62-7.58,2.44-9.39,5.94-2.42,4.77-2.21,10.32-2.3,15.53.14,6.43-.52,13,1.28,19.32a11.18,11.18,0,0,0,7.58,7.62c6.44,1.9,13.23,1.45,19.87,1.66,8.83-.12,17.73.34,26.52-.76,4.59-.53,9.62-2.79,11.15-7.51,2.29-7.17,1.28-14.83,1.52-22.23-.23-5.62.13-12.31-4.35-16.45-5.11-4.07-12.12-3.64-18.28-4C445.71,85.71,434.43,84.81,423.3,86.36Z"/><path d="M536.85,72.08c8.84-1.54,17.84-.75,26.76-1,0,4.53,0,9.05,0,13.58-8.7.34-17.7-1-26.15,1.59-6.14,2.14-7.63,9.3-7.74,15-.3,16.45,0,32.92-.14,49.39-5.59,0-11.16,0-16.73,0V104.13c0-7.84,1.06-16.29,6-22.68C523.21,75.91,530.1,73.2,536.85,72.08Z"/><path d="M774.41,70.92c10.27.18,20.6-.48,30.85.53,8.11.89,17,3.86,21.29,11.3,5.46,8.92,3.75,19.76,4,29.68-.11,9.86.89,20.94-5.35,29.32-5.93,7.47-16.24,8.39-25.08,8.88-17,.16-34.1.09-51.15,0-7.61-.36-16.37-1.52-21.45-7.88-4.25-5.47-3.6-12.8-3.63-19.31,0-5.7.57-12.21,5.12-16.25,5.33-4.84,13-5.72,19.87-6q32.45,0,64.88,0c0-5.25,0-11.56-4.47-15.18-4.05-3.1-9.47-2.86-14.31-3-6.87,0-13.75,0-20.61,0,0-4,0-8.11,0-12.15m-31.89,44.25c-2.47,3.11-1.83,7.36-1.94,11.07.07,3.38-.47,7.3,2,10,2.69,2.46,6.6,2.78,10.09,2.82,15,0,30.09.08,45.12-.07,4.79-.15,10.54-.83,13.29-5.31,3.8-6.38,2.4-14.16,2.69-21.22h-62C748.52,112.51,744.93,112.81,742.52,115.17Z"/><path d="M866.75,73c10.1-2.76,20.67-1.66,31-1.89q0,6.8,0,13.58c-6.95.08-13.91-.25-20.83.41-3.64.36-7.57,1.42-9.88,4.46-2.92,3.9-3.08,9-3.27,13.66-.07,15.83,0,31.66,0,47.48H847V106.88c-.09-7.79.33-16,4.34-22.95C854.57,78.25,860.53,74.63,866.75,73Z"/><path d="M913.2,80.39c5.7-7.52,15.88-8.83,24.65-9.31,15-.35,30.07-.09,45.11-.15,7.83.11,16.54,1.36,22.3,7.2,4.56,4.63,5.22,11.54,5,17.71q0,11.09,0,22.14c-28.42.07-56.84,0-85.27,0,.11,4.86-.5,10.12,1.89,14.57,2.45,4,7.68,4.17,11.87,4.42,9.8.23,19.62,0,29.43.11,0,4.53,0,9.07,0,13.61-10.19-.09-20.39.15-30.57-.13-9.16-.51-19.62-2.82-24.93-11.08-5.85-9.18-4.22-20.51-4.47-30.82.09-9.52-.76-20.12,5-28.3m13.36,9.71c-2.15,5.08-1.42,10.77-1.57,16.15h68.48c0-4.67.07-9.35,0-14,0-2.45-.82-5.46-3.45-6.27-3.75-1.27-7.78-1-11.67-1.06-13.5.1-27-.19-40.52.18C933.67,85.19,928.48,85.85,926.56,90.1Z"/></g></g></svg>