<svg xmlns="http://www.w3.org/2000/svg" viewBox="0 0 1101.12 330.36"><g id="Layer_2" data-name="Layer 2"><g id="Layer_1-2" data-name="Layer 1"><g id="Layer_2-2" data-name="Layer 2"><g id="LOGO"><path d="M236.37,259.15l-37.48-66.38s32.4-9,32.4-55.63S192.83,77,160.82,77H94.64l20.14,39.14H157.5c16.4,0,29.87,12,29.87,27.67,0,12-7.66,27.68-27,27.68H143.25l45.09,87.65Z"/><path d="M0,0V330.36H330.36V0ZM297.52,297.52h-264V38.64h264Z"/><path d="M406.6,80h37.09v28.47Q466.1,77,497.71,77h5.93l-5.27,35.84a47.7,47.7,0,0,0-15.15,3.63,57.63,57.63,0,0,0-14.16,7.31,54.72,54.72,0,0,0-19.6,24.55q-5.76,14.61-5.77,41.47v69.34H406.6Z"/><path d="M588.08,181.7V151.5h87q-6.2-18.66-20.52-29.71a52.94,52.94,0,0,0-33.33-11q-24.32,0-40.21,16.22t-15.88,41.05q0,24.16,15.92,40.71t39.87,16.55q23,0,41.35-18l26.25,22.59q-26.58,29.26-67.92,29.26-39.08,0-65.32-25.81T529,168.74q0-38.46,26.58-65.09t66-26.64q37.13,0,64,26.66t26.91,64.53v7.24c-.65,2.85-1.08,5-1.31,6.19Z"/><polygon points="730.71 78 791.26 167.47 730.71 255.54 773.22 255.44 811.86 197.93 850.83 255.54 893.32 255.66 833.28 167.49 893.56 78.03 851.16 78 812.29 137.07 773.47 77.94 730.71 78"/><path d="M953.11,168.57q0,23.77,16,40.27a52.37,52.37,0,0,0,39.13,16.5,59,59,0,0,0,22.1-4,58.32,58.32,0,0,0,18.82-12.54A54.29,54.29,0,0,0,1066,168.57a55.36,55.36,0,0,0-16.49-40.92,54.28,54.28,0,0,0-40.27-16.84,53.69,53.69,0,0,0-39.79,16.68q-16.34,16.67-16.33,41.08M1066,93.16V77.07h35.12V255.54H1066V241.76a54.07,54.07,0,0,1,4.55-21.34l-5.26,7.61q-23.91,31.12-60.35,31.12-35.76,0-62.19-27t-26.4-64.26q0-37.87,26.25-64.37T1006.27,77q32.49,0,44.46,13.23t14.94,17.55l5.25,8.27a56.69,56.69,0,0,1-3.93-10.77Z"/></g></g></g></g></svg>