<?xml version="1.0" encoding="UTF-8" ?>
<!DOCTYPE svg PUBLIC "-//W3C//DTD SVG 1.1//EN" "http://www.w3.org/Graphics/SVG/1.1/DTD/svg11.dtd">
<svg width="512pt" height="512pt" viewBox="0 0 512 512" version="1.1" xmlns="http://www.w3.org/2000/svg">
<g id="#000000ff">
<path fill="#000000" opacity="1.00" d=" M 13.36 8.46 C 14.55 8.13 15.75 7.98 16.99 8.00 C 174.66 8.00 332.33 8.01 490.00 7.99 C 493.91 8.13 498.63 7.17 501.64 10.35 C 504.80 13.36 503.87 18.05 504.01 21.95 C 503.99 179.63 504.01 337.30 504.00 494.97 C 504.35 498.85 501.84 502.87 497.94 503.73 C 494.65 504.25 491.31 503.93 488.00 504.00 C 332.68 504.01 177.36 503.99 22.03 504.01 C 18.11 503.86 13.37 504.82 10.35 501.64 C 7.17 498.63 8.13 493.92 7.99 490.01 C 8.01 332.32 7.99 174.64 8.00 16.95 C 7.70 13.33 9.83 9.60 13.36 8.46 M 24.00 24.00 C 23.97 30.41 24.06 36.81 23.95 43.22 C 55.33 60.21 83.24 83.76 104.44 112.53 C 135.14 153.61 152.03 204.72 152.00 256.00 C 146.67 256.00 141.33 256.00 136.00 256.00 C 135.92 225.62 129.71 195.26 117.66 167.36 C 98.84 123.32 65.45 85.78 24.02 61.76 C 23.97 203.84 24.01 345.92 24.00 488.00 C 93.33 488.00 162.67 488.00 232.00 488.00 C 232.00 456.00 232.00 424.00 232.00 392.00 C 223.96 391.95 215.92 392.09 207.89 391.95 C 203.69 392.03 199.93 388.27 200.05 384.07 C 199.91 376.05 200.05 368.02 200.00 360.00 C 175.98 359.96 151.95 360.07 127.93 359.95 C 123.73 360.06 119.95 356.32 120.05 352.11 C 119.93 336.39 120.03 320.68 120.00 304.96 C 119.74 301.59 121.51 298.08 124.69 296.73 C 128.29 295.42 132.25 296.18 136.00 296.01 C 136.10 290.29 135.79 284.56 136.14 278.85 C 136.54 274.62 140.79 271.60 144.91 272.00 C 218.95 272.00 293.00 272.00 367.04 272.00 C 371.18 271.59 375.44 274.62 375.86 278.86 C 376.21 284.57 375.89 290.29 376.00 296.01 C 379.54 296.11 383.18 295.60 386.66 296.47 C 390.16 297.62 392.28 301.32 392.00 304.92 C 391.97 320.63 392.07 336.35 391.95 352.06 C 392.06 356.27 388.29 360.05 384.08 359.95 C 360.05 360.07 336.03 359.96 312.00 360.00 C 311.95 368.01 312.09 376.02 311.95 384.03 C 312.07 388.25 308.32 392.04 304.10 391.95 C 296.07 392.09 288.03 391.95 280.00 392.00 C 280.00 424.00 280.00 456.00 280.00 488.00 C 349.33 488.00 418.67 488.00 488.00 488.00 C 488.00 333.33 488.00 178.67 488.00 24.00 C 422.18 24.00 356.36 23.99 290.55 24.01 C 323.50 60.68 348.22 104.72 362.20 152.00 C 372.28 185.66 376.65 220.90 376.00 256.00 C 370.66 256.00 365.33 256.00 360.00 256.00 C 360.14 240.29 359.65 224.54 357.69 208.94 C 352.88 168.82 340.29 129.65 320.84 94.23 C 306.84 68.57 289.11 45.01 268.74 24.07 C 187.16 23.91 105.58 24.04 24.00 24.00 M 152.00 288.00 C 152.00 290.67 152.00 293.33 152.00 296.00 C 221.33 296.00 290.67 296.00 360.00 296.00 C 360.00 293.33 360.00 290.66 360.00 288.00 C 290.66 288.00 221.33 288.00 152.00 288.00 M 136.00 312.00 C 136.00 322.67 136.00 333.33 136.00 344.00 C 157.34 344.00 178.67 344.00 200.01 344.00 C 200.05 340.68 199.76 337.33 200.27 334.04 C 201.11 330.16 205.11 327.64 208.98 328.00 C 240.31 328.00 271.66 328.00 302.99 328.00 C 306.38 327.73 309.92 329.51 311.27 332.72 C 312.57 336.31 311.82 340.25 311.99 344.00 C 333.33 344.00 354.66 344.00 376.00 344.00 C 376.00 333.33 376.00 322.67 376.00 312.00 C 296.00 312.00 216.00 312.00 136.00 312.00 M 216.00 344.00 C 216.00 354.67 216.00 365.33 216.00 376.00 C 221.34 376.00 226.67 376.00 232.01 376.00 C 232.05 372.65 231.75 369.27 232.29 365.96 C 233.17 362.13 237.11 359.65 240.94 360.00 C 251.93 360.17 262.97 359.65 273.94 360.27 C 281.09 361.92 280.17 370.38 279.99 376.00 C 285.33 376.00 290.66 376.00 296.00 376.00 C 296.00 365.33 296.00 354.67 296.00 344.00 C 269.33 344.00 242.67 344.00 216.00 344.00 M 248.00 376.00 C 248.00 413.33 248.00 450.67 248.00 488.00 C 253.33 488.00 258.67 488.00 264.00 488.00 C 264.00 450.67 264.00 413.33 264.00 376.00 C 258.67 376.00 253.33 376.00 248.00 376.00 Z" />
<path fill="#000000" opacity="1.00" d=" M 421.34 32.47 C 425.85 30.70 431.45 34.04 431.84 38.90 C 432.21 43.59 432.47 48.36 434.14 52.81 C 439.11 67.98 453.92 79.33 469.92 79.87 C 473.57 79.73 477.73 80.98 479.24 84.65 C 481.81 89.62 477.63 96.18 472.04 95.96 C 463.43 96.11 454.83 98.80 447.97 104.07 C 438.93 110.85 432.89 121.61 432.19 132.92 C 431.92 135.71 432.16 138.88 430.13 141.10 C 427.18 144.88 420.87 144.90 417.90 141.15 C 415.61 138.64 416.11 135.03 415.71 131.92 C 414.42 116.69 403.36 102.92 388.86 98.16 C 384.38 96.47 379.58 96.23 374.86 95.84 C 370.61 95.46 367.38 91.04 368.10 86.87 C 368.54 83.07 372.05 79.99 375.88 80.05 C 381.54 79.82 387.22 78.86 392.37 76.45 C 406.15 70.41 415.72 56.08 415.95 41.02 C 415.76 37.39 417.75 33.61 421.34 32.47 M 404.94 88.00 C 412.64 92.84 419.23 99.38 424.00 107.13 C 428.78 99.36 435.38 92.76 443.16 88.00 C 435.38 83.22 428.78 76.63 424.00 68.86 C 419.22 76.61 412.63 83.14 404.94 88.00 Z" />
<path fill="#000000" opacity="1.00" d=" M 113.45 52.62 C 117.88 49.59 122.15 46.34 126.69 43.46 C 138.98 61.47 149.86 80.48 158.37 100.58 C 174.81 138.82 183.55 180.35 183.93 221.97 C 184.05 227.98 183.98 233.99 184.00 240.00 C 178.67 240.00 173.33 240.00 168.00 240.00 C 167.99 229.01 168.11 218.01 167.40 207.04 C 164.17 151.89 145.22 97.80 113.45 52.62 Z" />
<path fill="#000000" opacity="1.00" d=" M 301.31 176.48 C 305.51 174.83 310.77 177.56 311.68 182.00 C 312.23 185.22 312.10 188.59 313.27 191.70 C 316.17 200.49 324.60 207.25 333.89 207.83 C 336.36 208.09 339.15 208.05 341.10 209.86 C 344.90 212.82 344.89 219.20 341.08 222.15 C 338.84 224.18 335.64 223.87 332.85 224.27 C 322.40 225.37 313.38 234.36 312.27 244.82 C 311.87 247.62 312.18 250.85 310.13 253.11 C 307.31 256.68 301.42 256.93 298.32 253.61 C 295.61 251.11 296.16 247.18 295.60 243.89 C 294.07 233.83 285.31 225.33 275.16 224.27 C 272.35 223.87 269.13 224.18 266.88 222.12 C 263.10 219.17 263.10 212.81 266.89 209.86 C 269.14 207.80 272.37 208.12 275.18 207.72 C 286.02 206.59 295.20 196.94 295.84 186.07 C 295.70 182.17 297.24 177.74 301.31 176.48 M 296.08 216.00 C 299.00 218.34 301.65 221.01 304.00 223.93 C 306.35 220.99 309.02 218.31 311.98 215.98 C 309.00 213.69 306.36 211.00 304.00 208.07 C 301.65 210.99 299.00 213.66 296.08 216.00 Z" />
<path fill="#000000" opacity="1.00" d=" M 72.00 336.00 C 77.33 336.00 82.67 336.00 88.00 336.00 C 88.00 349.33 88.00 362.66 88.00 376.00 C 96.02 376.05 104.05 375.91 112.07 376.04 C 115.89 375.96 119.48 379.06 119.86 382.88 C 120.31 388.93 119.70 395.01 120.13 401.07 C 120.45 404.56 123.48 407.48 126.92 407.91 C 130.56 408.47 134.38 406.13 135.53 402.63 C 136.12 400.15 136.05 397.57 136.53 395.07 C 138.06 387.41 143.64 380.73 150.88 377.81 C 158.24 374.72 167.14 375.66 173.66 380.29 C 180.07 384.64 184.04 392.28 183.98 400.03 C 184.07 410.71 183.90 421.40 184.05 432.08 C 183.93 436.34 187.78 440.08 192.00 439.99 C 196.21 440.07 200.04 436.35 199.95 432.11 C 200.10 424.08 199.94 416.04 200.00 408.00 C 205.33 408.00 210.67 408.00 216.00 408.00 C 215.98 416.01 216.04 424.02 215.98 432.03 C 216.00 439.02 212.79 445.92 207.41 450.37 C 200.57 456.27 190.27 457.66 182.10 453.84 C 174.03 450.26 168.30 441.93 168.06 433.08 C 167.87 422.02 168.13 410.96 167.95 399.90 C 168.05 395.66 164.23 391.91 160.01 392.01 C 155.75 391.90 151.95 395.65 152.05 399.92 C 151.91 406.43 149.33 412.91 144.53 417.37 C 138.95 422.80 130.62 425.11 123.03 423.47 C 115.13 421.85 108.26 415.94 105.51 408.35 C 103.46 403.15 104.09 397.46 104.00 392.00 C 95.97 391.95 87.94 392.09 79.92 391.95 C 75.71 392.05 71.94 388.29 72.05 384.08 C 71.93 368.06 72.03 352.03 72.00 336.00 Z" />
</g>
</svg>
