<?xml version="1.0" encoding="UTF-8" ?>
<!DOCTYPE svg PUBLIC "-//W3C//DTD SVG 1.1//EN" "http://www.w3.org/Graphics/SVG/1.1/DTD/svg11.dtd">
<svg width="512pt" height="512pt" viewBox="0 0 512 512" version="1.1" xmlns="http://www.w3.org/2000/svg">
<g id="#000000ff">
<path fill="#000000" opacity="1.00" d=" M 255.08 0.00 L 257.17 0.00 C 261.81 1.71 265.99 4.40 270.31 6.76 C 341.10 45.93 411.88 85.13 482.67 124.30 C 486.22 125.97 488.86 129.88 487.73 133.90 C 486.65 138.43 481.77 140.05 478.21 142.19 C 447.12 159.44 415.90 176.45 384.95 193.94 C 397.73 201.67 411.07 208.47 424.05 215.87 C 443.60 226.67 463.14 237.50 482.69 248.31 C 485.58 249.81 488.14 252.58 487.95 256.05 C 488.08 259.47 485.54 262.20 482.69 263.69 C 449.97 281.78 417.27 299.90 384.55 318.00 C 417.48 336.24 450.44 354.43 483.34 372.72 C 487.91 374.82 489.55 381.30 486.08 385.09 C 483.13 388.00 479.15 389.51 475.63 391.59 C 404.41 431.01 333.19 470.44 261.97 509.86 C 260.46 510.65 258.91 511.36 257.34 512.00 L 254.82 512.00 C 249.98 510.13 245.60 507.30 241.06 504.84 C 170.45 465.78 99.86 426.67 29.25 387.61 C 26.41 386.14 23.89 383.44 24.05 380.03 C 23.85 376.57 26.42 373.83 29.32 372.35 C 62.04 354.28 94.73 336.15 127.44 318.05 C 94.61 299.62 61.55 281.58 28.66 263.24 C 25.37 261.59 23.27 257.79 24.26 254.13 C 24.83 251.13 27.52 249.33 29.99 247.95 C 62.52 230.03 95.00 212.01 127.48 194.00 C 97.35 177.27 67.18 160.61 37.04 143.91 C 33.65 141.97 30.04 140.37 26.91 138.02 C 23.10 135.21 23.10 128.77 26.92 125.97 C 30.08 123.61 33.71 121.99 37.12 120.04 C 105.54 82.18 173.95 44.29 242.37 6.42 C 246.54 4.16 250.56 1.52 255.08 0.00 M 216.96 38.87 C 217.68 39.55 218.48 40.12 219.33 40.63 C 231.56 47.35 243.76 54.10 255.96 60.88 C 268.68 53.87 281.40 46.84 294.10 39.78 C 296.16 39.35 293.95 38.15 293.34 37.78 C 280.88 30.91 268.47 23.98 256.00 17.15 C 243.02 24.45 229.88 31.48 216.96 38.87 M 160.91 69.90 C 163.65 72.03 166.83 73.45 169.84 75.16 C 179.87 80.74 189.95 86.24 199.97 91.85 C 213.00 84.51 226.34 77.66 239.13 69.93 C 226.16 62.53 213.00 55.42 199.94 48.17 C 186.97 55.49 173.81 62.48 160.91 69.90 M 281.25 65.20 C 278.44 66.78 275.44 68.09 272.94 70.17 C 285.84 77.57 298.98 84.57 311.95 91.87 C 322.46 86.11 332.92 80.25 343.43 74.48 C 346.05 73.04 348.77 71.71 351.16 69.89 C 338.20 62.50 325.06 55.40 312.01 48.15 C 301.78 53.87 291.50 59.51 281.25 65.20 M 108.04 99.02 C 106.96 99.65 105.90 100.33 104.94 101.12 C 117.86 108.53 131.00 115.54 143.98 122.84 C 157.16 115.61 170.31 108.32 183.46 101.01 C 170.30 93.72 157.15 86.41 143.96 79.17 C 132.00 85.81 120.04 92.46 108.04 99.02 M 216.67 100.96 C 229.64 108.46 242.89 115.48 255.95 122.85 C 268.67 115.83 281.41 108.83 294.09 101.74 C 295.87 101.21 294.03 100.14 293.34 99.82 C 280.86 92.98 268.44 86.02 255.96 79.17 C 242.88 86.48 229.74 93.66 216.67 100.96 M 337.30 96.15 C 334.47 97.74 331.46 99.08 328.91 101.14 C 341.81 108.56 354.96 115.54 367.93 122.85 C 381.06 115.52 394.34 108.44 407.35 100.90 C 394.22 93.65 381.13 86.36 367.99 79.14 C 357.78 84.85 347.53 90.47 337.30 96.15 M 49.92 131.27 C 48.04 131.76 50.09 132.86 50.72 133.21 C 63.14 140.09 75.58 146.93 87.99 153.84 C 100.02 147.28 111.94 140.53 123.98 133.99 C 125.08 133.38 126.14 132.69 127.08 131.86 C 114.13 124.49 101.03 117.37 87.99 110.16 C 75.32 117.24 62.57 124.17 49.92 131.27 M 160.55 132.00 C 173.67 139.30 186.85 146.52 199.97 153.83 C 213.00 146.49 226.32 139.62 239.12 131.92 C 226.16 124.52 213.03 117.40 199.97 110.16 C 186.85 117.48 173.67 124.69 160.55 132.00 M 281.79 126.86 C 278.80 128.55 275.63 129.96 272.94 132.11 C 285.81 139.57 298.99 146.51 311.94 153.84 C 325.00 146.60 338.13 139.46 351.12 132.08 C 338.29 124.41 324.99 117.49 311.95 110.16 C 301.91 115.76 291.84 121.30 281.79 126.86 M 384.93 131.88 C 385.88 132.68 386.93 133.36 388.01 134.00 C 400.02 140.58 412.00 147.21 423.97 153.87 C 437.03 146.63 450.16 139.51 463.12 132.11 C 460.58 130.13 457.63 128.77 454.83 127.21 C 444.55 121.50 434.27 115.78 423.96 110.13 C 411.00 117.47 397.81 124.40 384.93 131.88 M 104.58 162.99 C 117.68 170.31 130.85 177.51 143.96 184.83 C 157.08 177.53 170.33 170.44 183.33 162.92 C 170.23 155.64 157.12 148.37 143.98 141.16 C 130.87 148.47 117.70 155.69 104.58 162.99 M 216.97 162.84 C 219.02 164.70 221.61 165.76 223.98 167.12 C 234.64 173.02 245.32 178.89 255.96 184.83 C 269.00 177.58 282.13 170.48 295.10 163.10 C 292.54 161.15 289.63 159.76 286.83 158.21 C 276.53 152.54 266.27 146.78 255.95 141.15 C 243.00 148.45 229.86 155.43 216.97 162.84 M 328.98 162.81 C 330.75 164.59 333.15 165.51 335.30 166.76 C 346.20 172.77 357.11 178.78 367.98 184.86 C 381.03 177.61 394.18 170.51 407.14 163.10 C 394.31 155.39 380.97 148.51 367.92 141.15 C 354.97 148.43 341.87 155.43 328.98 162.81 M 161.18 193.71 C 161.19 193.85 161.22 194.12 161.23 194.25 C 174.01 201.64 187.08 208.56 199.94 215.82 C 213.00 208.48 226.32 201.58 239.16 193.89 C 226.18 186.49 213.03 179.37 199.96 172.13 C 187.08 179.40 173.99 186.33 161.18 193.71 M 272.94 193.84 C 275.44 195.90 278.44 197.21 281.24 198.80 C 291.49 204.49 301.78 210.13 312.01 215.85 C 325.03 208.49 338.38 201.65 351.17 193.92 C 338.20 186.49 325.03 179.40 311.96 172.13 C 298.98 179.42 285.84 186.43 272.94 193.84 M 48.91 255.90 C 51.86 258.12 55.24 259.65 58.42 261.47 C 124.29 297.92 190.16 334.37 256.00 370.85 C 322.94 333.85 389.84 296.78 456.75 259.75 C 458.89 258.51 461.28 257.58 463.08 255.83 C 431.45 238.16 399.71 220.69 368.00 203.15 C 332.22 222.99 296.42 242.81 260.61 262.59 C 257.81 264.33 254.24 264.35 251.45 262.60 C 215.62 242.80 179.84 222.91 144.00 203.15 C 112.34 220.79 80.52 238.16 48.91 255.90 M 216.91 224.86 C 219.47 226.86 222.45 228.24 225.27 229.82 C 235.52 235.49 245.77 241.16 256.01 246.85 C 269.03 239.50 282.37 232.67 295.15 224.91 C 282.20 217.47 269.02 210.39 255.96 203.12 C 242.98 210.44 229.82 217.42 216.91 224.86 M 48.63 380.01 C 61.72 387.34 74.89 394.53 87.98 401.84 C 117.15 385.76 146.27 369.59 175.43 353.48 C 178.03 352.04 180.78 350.77 183.10 348.88 C 170.17 341.46 157.03 334.39 144.00 327.15 C 112.24 344.83 80.37 362.30 48.63 380.01 M 168.59 437.53 C 166.00 438.99 163.22 440.17 160.95 442.13 C 173.85 449.53 186.99 456.52 199.94 463.83 C 269.08 425.52 338.33 387.42 407.35 348.91 C 394.24 341.65 381.14 334.37 368.00 327.15 C 301.56 363.99 235.06 400.74 168.59 437.53 M 104.95 410.88 C 105.89 411.65 106.91 412.31 107.97 412.93 C 119.99 419.51 131.98 426.16 143.96 432.83 C 175.68 415.28 207.47 397.85 239.09 380.13 C 236.78 378.20 234.01 376.98 231.41 375.52 C 220.94 369.73 210.49 363.90 200.00 358.15 C 168.35 375.79 136.54 393.15 104.95 410.88 M 216.93 472.84 C 219.47 474.89 222.46 476.24 225.28 477.83 C 235.53 483.50 245.77 489.15 256.00 494.85 C 325.21 456.61 394.36 418.25 463.56 380.00 C 450.33 372.77 437.19 365.37 423.97 358.13 C 354.99 396.42 285.85 434.44 216.93 472.84 Z" />
</g>
</svg>
