<?xml version="1.0" encoding="UTF-8"?>
<svg xmlns="http://www.w3.org/2000/svg" width="512pt" height="512pt" viewBox="0 0 512 512" version="1.1">
  <g id="#000000ff">
    <path fill="#000000" opacity="1.00" d=" M 71.92 52.85 C 75.51 50.50 80.02 51.32 84.07 51.16 C 198.06 51.21 312.05 51.18 426.04 51.18 C 430.26 51.34 434.69 50.58 438.73 52.10 C 442.23 53.52 443.81 57.42 443.71 60.99 C 443.81 145.41 443.57 229.82 443.83 314.24 C 452.14 310.93 458.98 303.50 460.29 294.49 C 461.02 290.83 460.57 286.34 463.82 283.77 C 467.98 279.81 475.81 281.88 477.28 287.49 C 478.32 292.15 478.19 297.16 480.58 301.44 C 484.60 309.89 493.52 315.37 502.81 315.70 C 507.30 315.67 511.14 318.80 512.00 323.21 L 512.00 324.80 C 511.43 327.49 510.23 330.35 507.61 331.60 C 504.42 333.05 500.83 332.87 497.47 333.62 C 487.51 335.86 479.35 344.76 478.26 354.96 C 477.72 358.36 477.81 362.44 474.84 364.79 C 470.99 368.34 464.06 367.01 461.84 362.25 C 460.54 358.97 460.78 355.33 459.87 351.95 C 457.90 343.82 451.48 337.30 443.77 334.33 C 443.67 372.90 443.73 411.46 443.74 450.02 C 443.72 452.89 443.39 456.09 441.20 458.19 C 439.12 460.42 435.90 460.82 433.01 460.83 C 318.01 460.80 203.00 460.82 87.99 460.82 C 83.86 460.75 79.71 461.09 75.60 460.57 C 71.95 460.13 68.86 457.05 68.50 453.38 C 68.00 448.96 68.36 444.50 68.28 440.06 C 68.24 362.15 68.36 284.24 68.22 206.33 C 59.94 209.51 53.16 216.87 51.76 225.76 C 50.97 229.35 51.50 233.69 48.58 236.42 C 45.28 239.81 39.16 239.54 36.21 235.84 C 34.10 233.37 34.27 229.93 33.74 226.92 C 32.55 215.92 23.10 206.43 12.10 205.22 C 9.07 204.72 5.67 204.78 3.15 202.79 C 1.27 201.35 0.52 198.99 0.00 196.78 L 0.00 195.25 C 0.83 192.45 2.33 189.47 5.31 188.52 C 9.40 187.25 13.85 187.58 17.84 185.90 C 27.26 182.39 33.74 172.90 34.10 162.92 C 33.76 156.93 40.07 151.77 45.80 154.30 C 50.29 155.85 51.26 160.89 51.49 165.05 C 52.35 174.62 59.37 182.80 68.19 186.23 C 68.41 144.46 68.19 102.70 68.29 60.93 C 68.29 57.89 69.26 54.60 71.92 52.85 M 85.34 68.29 C 85.34 193.43 85.37 318.56 85.33 443.70 C 115.43 443.74 145.53 443.70 175.64 443.72 C 215.99 403.39 256.33 363.04 296.67 322.69 C 299.41 320.10 301.92 316.57 305.92 316.02 C 310.34 315.24 314.84 318.65 315.42 323.07 C 316.03 326.14 314.41 329.12 312.29 331.22 C 274.89 368.77 237.23 406.07 199.96 443.74 C 208.91 443.71 217.86 443.70 226.80 443.74 C 250.02 420.63 273.14 397.44 296.31 374.28 C 298.83 371.88 301.05 368.92 304.36 367.56 C 308.67 365.96 313.84 368.63 315.11 373.01 C 316.35 376.37 314.81 380.01 312.34 382.37 C 291.93 402.84 271.43 423.22 251.05 443.71 C 309.59 443.72 368.12 443.73 426.66 443.71 C 426.66 318.57 426.64 193.43 426.67 68.29 C 422.19 68.28 417.72 68.30 413.24 68.25 C 372.81 108.49 332.55 148.90 292.20 189.22 C 289.20 192.03 286.45 196.03 281.96 196.27 C 276.95 196.69 272.38 191.88 273.12 186.90 C 273.56 182.89 277.05 180.32 279.63 177.60 C 316.07 141.16 352.57 104.79 388.93 68.27 C 380.05 68.39 371.15 68.09 362.27 68.40 C 360.40 69.38 359.12 71.18 357.60 72.60 C 334.61 95.63 311.56 118.61 288.56 141.64 C 286.77 143.38 284.61 144.99 282.01 145.05 C 277.48 145.46 273.14 141.58 273.07 137.03 C 272.81 133.84 274.86 131.15 277.00 129.03 C 296.22 109.90 315.35 90.69 334.56 71.55 C 335.54 70.52 336.49 69.45 337.35 68.31 C 253.35 68.25 169.34 68.29 85.34 68.29 M 42.44 187.83 C 40.07 190.99 37.25 193.77 34.17 196.24 C 37.26 198.84 40.09 201.71 42.73 204.76 C 45.19 201.59 48.12 198.85 51.11 196.20 C 47.93 193.73 45.28 190.67 42.44 187.83 M 460.91 324.46 C 464.06 326.84 466.83 329.66 469.27 332.76 C 471.91 329.71 474.73 326.83 477.83 324.25 C 474.75 321.76 471.92 318.96 469.51 315.82 C 466.73 318.79 463.85 321.66 460.91 324.46 Z"></path>
    <path fill="#000000" opacity="1.00" d=" M 124.26 86.30 C 128.33 84.19 133.79 86.11 135.65 90.28 C 136.59 92.76 136.59 95.45 137.02 98.04 C 138.50 108.93 148.08 118.13 159.04 119.13 C 162.12 119.58 165.71 119.50 168.02 121.96 C 171.38 125.09 171.38 130.95 168.00 134.06 C 165.71 136.49 162.14 136.40 159.09 136.87 C 148.78 137.79 139.69 145.94 137.37 155.98 C 136.52 159.39 136.90 163.13 135.32 166.34 C 132.88 170.87 126.13 171.98 122.39 168.43 C 119.57 166.17 119.57 162.30 119.13 159.04 C 118.10 147.67 108.24 137.85 96.87 136.86 C 94.03 136.41 90.77 136.53 88.49 134.49 C 84.59 131.41 84.53 124.64 88.44 121.55 C 91.06 119.22 94.81 119.59 98.03 118.98 C 109.30 117.47 118.62 107.30 119.25 95.95 C 119.42 92.22 120.51 87.96 124.26 86.30 M 119.81 128.02 C 122.53 130.82 125.51 133.36 127.98 136.40 C 130.60 133.41 133.40 130.59 136.40 128.00 C 133.40 125.40 130.58 122.60 128.00 119.58 C 125.53 122.64 122.49 125.16 119.81 128.02 Z"></path>
    <path fill="#000000" opacity="1.00" d=" M 380.52 350.69 C 384.49 348.90 389.60 350.60 391.51 354.56 C 392.66 357.23 392.58 360.21 393.09 363.03 C 394.77 373.70 404.19 382.61 414.95 383.66 C 417.71 384.12 420.84 383.93 423.16 385.77 C 427.54 388.79 427.54 396.18 423.22 399.26 C 420.88 401.11 417.73 400.93 414.95 401.41 C 403.84 402.51 394.16 411.95 392.94 423.07 C 392.40 426.64 392.53 430.93 389.25 433.25 C 385.21 436.75 378.21 434.98 376.25 430.02 C 375.13 426.45 375.37 422.61 374.23 419.04 C 371.50 409.98 363.28 402.81 353.88 401.51 C 350.61 400.92 346.80 401.27 344.21 398.80 C 340.56 395.66 340.55 389.41 344.21 386.28 C 346.85 383.74 350.76 384.14 354.10 383.52 C 365.17 381.96 374.42 372.08 375.20 360.92 C 375.38 356.95 376.45 352.38 380.52 350.69 M 375.58 392.62 C 378.66 395.13 381.45 397.96 384.00 401.00 C 386.54 397.97 389.31 395.14 392.40 392.66 C 389.49 389.90 386.56 387.15 384.00 384.06 C 381.43 387.14 378.53 389.91 375.58 392.62 Z"></path>
  </g>
</svg>
