<?xml version="1.0" encoding="UTF-8" ?>
<!DOCTYPE svg PUBLIC "-//W3C//DTD SVG 1.1//EN" "http://www.w3.org/Graphics/SVG/1.1/DTD/svg11.dtd">
<svg width="512pt" height="512pt" viewBox="0 0 512 512" version="1.1" xmlns="http://www.w3.org/2000/svg">
<g id="#000000ff">
<path fill="#000000" opacity="1.00" d=" M 13.36 8.46 C 14.53 8.14 15.73 7.98 16.94 8.00 C 176.30 8.00 335.66 8.00 495.02 8.00 C 497.90 7.84 500.93 8.96 502.55 11.44 C 504.70 14.54 503.83 18.52 504.01 22.04 C 503.99 179.72 504.01 337.40 504.00 495.08 C 504.55 500.08 500.01 504.57 495.02 504.00 C 337.35 504.01 179.68 503.99 22.00 504.01 C 18.10 503.87 13.41 504.81 10.39 501.67 C 7.16 498.66 8.14 493.91 7.99 489.98 C 8.01 332.29 7.99 174.60 8.00 16.91 C 7.71 13.30 9.85 9.59 13.36 8.46 M 24.00 24.00 C 24.00 34.41 23.98 44.83 24.02 55.24 C 39.41 52.14 52.12 39.40 55.24 24.02 C 44.83 23.97 34.42 24.01 24.00 24.00 M 71.37 24.01 C 69.89 33.48 66.12 42.60 60.22 50.17 C 51.51 61.60 38.21 69.26 24.01 71.37 C 23.99 114.46 23.99 157.54 24.01 200.63 C 34.01 202.16 43.61 206.28 51.42 212.75 C 62.16 221.48 69.32 234.32 71.37 247.99 C 114.46 248.01 157.54 248.01 200.63 247.99 C 202.20 237.78 206.48 227.97 213.17 220.08 C 221.89 209.62 234.53 202.63 247.99 200.63 C 248.01 157.54 248.01 114.46 247.99 71.37 C 238.03 69.81 228.45 65.70 220.65 59.29 C 209.87 50.58 202.66 37.71 200.63 24.01 C 157.54 23.99 114.46 24.00 71.37 24.01 M 216.76 24.02 C 219.85 39.41 232.61 52.12 247.98 55.24 C 248.02 44.83 247.99 34.41 248.00 24.00 C 237.58 24.01 227.17 23.98 216.76 24.02 M 264.00 24.00 C 264.01 34.42 263.98 44.83 264.02 55.24 C 279.41 52.14 292.12 39.40 295.24 24.02 C 284.83 23.98 274.41 24.01 264.00 24.00 M 311.37 24.01 C 309.81 34.01 305.68 43.62 299.22 51.43 C 290.52 62.19 277.67 69.33 264.02 71.37 C 263.99 114.46 263.99 157.54 264.02 200.63 C 272.33 201.94 280.40 204.92 287.35 209.71 C 300.27 218.36 309.10 232.63 311.37 247.99 C 354.46 248.01 397.54 248.01 440.63 247.98 C 442.19 237.79 446.46 228.00 453.14 220.12 C 461.85 209.63 474.51 202.63 487.99 200.63 C 488.01 157.54 488.01 114.46 487.99 71.37 C 478.02 69.81 468.43 65.70 460.63 59.27 C 449.86 50.56 442.66 37.70 440.63 24.02 C 397.54 23.99 354.46 23.99 311.37 24.01 M 456.76 24.02 C 459.85 39.41 472.60 52.12 487.98 55.24 C 488.02 44.83 487.99 34.41 488.00 24.00 C 477.58 24.01 467.17 23.98 456.76 24.02 M 24.02 216.76 C 23.98 227.17 24.01 237.58 24.00 248.00 C 34.42 247.99 44.83 248.02 55.24 247.98 C 52.13 232.60 39.42 219.84 24.02 216.76 M 216.76 247.98 C 227.17 248.02 237.58 247.99 247.99 248.00 C 247.99 237.59 248.02 227.17 247.98 216.76 C 232.60 219.86 219.84 232.59 216.76 247.98 M 264.02 216.76 C 263.98 227.17 264.00 237.59 264.00 248.00 C 274.42 247.99 284.83 248.02 295.24 247.98 C 292.13 232.60 279.42 219.84 264.02 216.76 M 456.77 247.99 C 467.17 248.02 477.58 247.99 487.99 248.00 C 487.99 237.59 488.02 227.17 487.98 216.76 C 472.60 219.86 459.83 232.59 456.77 247.99 M 24.00 264.00 C 24.00 274.41 23.98 284.83 24.02 295.24 C 39.41 292.14 52.12 279.40 55.24 264.02 C 44.83 263.97 34.42 264.01 24.00 264.00 M 71.37 264.01 C 69.89 273.49 66.11 282.62 60.20 290.20 C 51.49 301.62 38.20 309.26 24.02 311.37 C 23.99 354.46 23.99 397.54 24.01 440.63 C 32.32 441.93 40.38 444.92 47.32 449.69 C 60.26 458.34 69.10 472.62 71.37 487.99 C 114.46 488.00 157.54 488.01 200.63 487.98 C 202.26 477.32 206.88 467.10 214.07 459.03 C 222.74 449.14 234.99 442.57 247.98 440.63 C 248.01 397.54 248.01 354.46 247.99 311.37 C 238.03 309.81 228.45 305.71 220.66 299.29 C 209.87 290.58 202.66 277.72 200.63 264.02 C 157.54 263.99 114.46 264.00 71.37 264.01 M 216.76 264.02 C 219.85 279.41 232.60 292.12 247.98 295.24 C 248.02 284.83 247.99 274.42 248.00 264.00 C 237.59 264.01 227.17 263.98 216.76 264.02 M 264.00 264.00 C 264.00 274.41 263.99 284.82 264.01 295.24 C 279.41 292.14 292.12 279.40 295.24 264.02 C 284.83 263.97 274.42 264.01 264.00 264.00 M 311.37 264.01 C 309.82 273.99 305.70 283.58 299.26 291.38 C 290.56 302.16 277.69 309.33 264.02 311.37 C 263.99 354.46 263.99 397.54 264.01 440.63 C 272.31 441.93 280.38 444.91 287.32 449.69 C 300.25 458.34 309.10 472.62 311.37 487.99 C 354.46 488.01 397.54 488.01 440.63 487.99 C 442.26 477.31 446.88 467.09 454.09 459.02 C 462.75 449.13 474.99 442.57 487.98 440.63 C 488.01 397.54 488.01 354.46 487.99 311.37 C 478.04 309.81 468.48 305.71 460.69 299.32 C 449.88 290.60 442.66 277.73 440.63 264.02 C 397.55 263.99 354.46 264.00 311.37 264.01 M 456.76 264.02 C 459.85 279.41 472.60 292.12 487.98 295.24 C 488.02 284.83 487.99 274.41 488.00 264.00 C 477.58 264.01 467.17 263.97 456.76 264.02 M 24.02 456.76 C 23.98 467.17 24.01 477.58 24.00 488.00 C 34.42 487.99 44.83 488.02 55.24 487.98 C 52.12 472.60 39.42 459.84 24.02 456.76 M 216.76 487.98 C 227.17 488.02 237.58 487.99 247.99 488.00 C 248.00 477.59 248.02 467.17 247.98 456.76 C 232.60 459.86 219.84 472.59 216.76 487.98 M 264.02 456.76 C 263.98 467.17 264.01 477.58 264.00 488.00 C 274.42 487.99 284.83 488.01 295.24 487.99 C 292.13 472.60 279.42 459.84 264.02 456.76 M 456.76 487.98 C 467.17 488.02 477.59 487.99 488.00 488.00 C 487.99 477.58 488.02 467.17 487.98 456.76 C 472.60 459.86 459.84 472.59 456.76 487.98 Z" />
<path fill="#000000" opacity="1.00" d=" M 134.39 48.45 C 137.88 47.70 141.59 49.53 143.30 52.63 C 159.08 78.89 174.84 105.17 190.60 131.45 C 192.38 134.18 192.37 137.84 190.59 140.56 C 174.69 167.05 158.84 193.57 142.88 220.02 C 140.09 225.22 131.78 225.18 129.06 219.92 C 113.13 193.50 97.30 167.01 81.41 140.56 C 79.61 137.85 79.60 134.16 81.41 131.44 C 97.03 105.38 112.69 79.34 128.30 53.26 C 129.58 50.93 131.67 48.91 134.39 48.45 M 135.89 71.72 C 123.06 93.16 110.18 114.57 97.34 136.01 C 110.23 157.46 123.08 178.95 136.00 200.40 C 148.94 178.96 161.78 157.46 174.67 136.00 C 161.69 114.60 149.12 92.95 135.89 71.72 Z" />
<path fill="#000000" opacity="1.00" d=" M 374.39 48.45 C 377.88 47.70 381.60 49.53 383.30 52.63 C 399.08 78.87 414.82 105.14 430.57 131.39 C 432.38 134.14 432.38 137.84 430.57 140.59 C 414.68 167.06 398.84 193.57 382.89 220.00 C 380.12 225.19 371.84 225.20 369.10 219.98 C 353.63 194.38 338.33 168.67 322.88 143.05 C 321.61 140.87 319.96 138.66 320.04 136.01 C 319.96 133.09 321.89 130.72 323.27 128.32 C 337.79 104.16 352.29 79.99 366.77 55.81 C 368.53 52.73 370.49 49.04 374.39 48.45 M 337.34 136.00 C 349.80 156.80 362.31 177.56 374.73 198.38 C 375.06 199.07 376.25 200.97 376.77 199.17 C 389.40 178.12 402.04 157.06 414.67 136.00 C 401.77 114.53 388.93 93.03 375.99 71.60 C 363.09 93.05 350.22 114.53 337.34 136.00 Z" />
<path fill="#000000" opacity="1.00" d=" M 134.33 288.46 C 137.85 287.67 141.61 289.52 143.32 292.66 C 159.09 318.90 174.84 345.17 190.59 371.43 C 192.38 374.17 192.38 377.84 190.58 380.58 C 174.69 407.05 158.84 433.57 142.89 460.01 C 140.11 465.20 131.83 465.19 129.09 459.97 C 113.63 434.37 98.33 408.67 82.89 383.07 C 81.62 380.88 79.97 378.68 80.04 376.03 C 79.98 372.83 82.20 370.29 83.67 367.65 C 98.41 343.09 113.17 318.55 127.87 293.97 C 129.24 291.42 131.31 288.96 134.33 288.46 M 135.89 311.73 C 123.05 333.17 110.18 354.58 97.34 376.00 C 110.21 397.47 123.11 418.93 135.97 440.41 C 148.94 418.98 161.77 397.47 174.67 375.99 C 161.69 354.61 149.14 332.94 135.89 311.73 Z" />
<path fill="#000000" opacity="1.00" d=" M 374.39 288.45 C 377.88 287.69 381.60 289.54 383.31 292.64 C 399.09 318.90 414.85 345.18 430.61 371.47 C 432.39 374.19 432.36 377.85 430.58 380.57 C 414.84 406.84 399.07 433.10 383.32 459.36 C 381.52 462.89 377.18 464.95 373.37 463.52 C 370.22 462.54 368.72 459.40 367.14 456.80 C 351.93 431.38 336.65 405.99 321.42 380.58 C 319.61 377.86 319.60 374.16 321.41 371.44 C 337.03 345.39 352.67 319.37 368.27 293.31 C 369.56 290.96 371.65 288.90 374.39 288.45 M 375.93 311.68 C 363.06 333.11 350.20 354.56 337.34 376.00 C 350.21 397.45 363.07 418.91 375.96 440.35 C 389.01 418.99 401.74 397.44 414.67 376.00 C 401.73 354.58 389.05 332.99 375.93 311.68 Z" />
</g>
</svg>
